<?xml version="1.0" standalone="no"?>
<!DOCTYPE svg PUBLIC "-//W3C//DTD SVG 20010904//EN"
 "http://www.w3.org/TR/2001/REC-SVG-20010904/DTD/svg10.dtd">
<svg version="1.0" xmlns="http://www.w3.org/2000/svg"
 width="200.000000pt" height="200.000000pt" viewBox="0 0 200.000000 200.000000"
 preserveAspectRatio="xMidYMid meet">
<metadata>
Created by potrace 1.11, written by Peter Selinger 2001-2013
</metadata>
<g transform="translate(0.000000,200.000000) scale(0.100000,-0.100000)"
fill="#000000" stroke="none">
<path d="M651 1887 c-26 -32 -40 -187 -56 -622 -11 -306 -23 -527 -35 -650 -4
-35 -19 76 -25 180 -22 379 -32 457 -64 496 -26 33 -65 20 -84 -28 -14 -36
-21 -77 -52 -301 -16 -115 -21 -123 -51 -72 -24 39 -58 52 -134 48 -46 -2 -66
-8 -74 -20 -17 -28 5 -40 74 -40 42 -1 65 -5 73 -15 96 -122 151 -91 172 97 3
30 8 72 11 93 3 20 7 47 8 60 2 12 7 42 11 67 10 61 20 32 29 -85 13 -177 16
-221 21 -300 13 -195 32 -288 61 -299 80 -31 93 43 119 694 19 468 17 446 27
455 3 3 6 -32 8 -77 1 -46 3 -99 5 -118 1 -19 6 -132 10 -250 11 -376 24 -715
30 -785 2 -27 7 -88 10 -134 9 -111 23 -155 53 -159 52 -8 66 94 87 663 5 123
15 339 20 410 2 22 4 66 6 98 1 31 5 57 9 57 4 0 8 -26 9 -57 1 -32 4 -74 6
-93 2 -19 6 -100 10 -180 4 -80 8 -161 10 -180 2 -19 6 -71 10 -115 4 -44 8
-91 10 -105 6 -68 32 -120 59 -120 60 1 74 53 91 345 7 123 16 228 20 251 2
10 4 30 4 44 1 14 5 20 10 15 10 -11 19 -81 27 -198 9 -145 25 -208 60 -236
21 -16 30 -18 55 -9 36 12 52 43 68 128 21 114 22 120 35 120 7 0 22 -20 34
-45 32 -67 97 -83 148 -37 50 45 50 44 99 22 60 -27 201 -26 219 3 17 27 -8
37 -92 37 -54 0 -83 5 -114 21 -51 26 -88 20 -135 -21 -18 -16 -38 -30 -43
-30 -5 0 -21 22 -36 49 -18 34 -36 53 -56 60 -62 22 -98 -18 -112 -124 -10
-71 -25 -125 -35 -125 -11 0 -28 102 -36 215 -15 190 -34 257 -76 268 -30 8
-66 -34 -74 -86 -12 -76 -14 -91 -20 -172 -3 -44 -8 -102 -10 -130 -5 -51 -17
-210 -18 -232 0 -7 -4 -13 -9 -13 -4 0 -9 19 -9 43 -1 23 -3 51 -4 62 -4 29
-15 204 -20 315 -20 429 -33 510 -84 510 -46 0 -61 -72 -76 -365 -4 -71 -8
-159 -10 -195 -2 -36 -7 -144 -11 -240 -4 -96 -8 -191 -9 -210 -2 -19 -3 -66
-4 -104 0 -38 -3 -67 -5 -65 -9 9 -18 167 -31 544 -25 725 -38 914 -65 966
-12 22 -43 25 -59 6z"/>
</g>
</svg>
